<mxfile host="embed.diagrams.net" modified="2023-04-09T13:26:49.978Z" agent="Mozilla/5.0 (X11; Linux x86_64; rv:109.0) Gecko/20100101 Firefox/111.0" etag="rtDsiXs5pc1xUt9XUE5b" version="21.1.5" type="embed">
  <diagram name="Page-1" id="9f46799a-70d6-7492-0946-bef42562c5a5">
    <mxGraphModel dx="-41" dy="817" grid="1" gridSize="10" guides="1" tooltips="1" connect="1" arrows="1" fold="1" page="1" pageScale="1" pageWidth="1169" pageHeight="1654" background="none" math="0" shadow="0">
      <root>
        <mxCell id="0" />
        <mxCell id="1" parent="0" />
        <mxCell id="252" value="&lt;div&gt;User&lt;/div&gt;" style="whiteSpace=wrap;html=1;align=center;fontSize=16;movable=0;resizable=0;rotatable=0;deletable=0;editable=0;locked=1;connectable=0;" parent="1" vertex="1">
          <mxGeometry x="1404" y="181" width="100" height="40" as="geometry" />
        </mxCell>
        <mxCell id="253" value="username" style="ellipse;whiteSpace=wrap;html=1;align=center;fontSize=16;movable=0;resizable=0;rotatable=0;deletable=0;editable=0;locked=1;connectable=0;" parent="1" vertex="1">
          <mxGeometry x="1200.6100000000001" y="181" width="100" height="40" as="geometry" />
        </mxCell>
        <mxCell id="254" value="uuid" style="ellipse;whiteSpace=wrap;html=1;align=center;fontStyle=4;fontSize=16;movable=0;resizable=0;rotatable=0;deletable=0;editable=0;locked=1;connectable=0;" parent="1" vertex="1">
          <mxGeometry x="1224" y="274" width="100" height="40" as="geometry" />
        </mxCell>
        <mxCell id="255" value="email" style="ellipse;whiteSpace=wrap;html=1;align=center;fontSize=16;movable=0;resizable=0;rotatable=0;deletable=0;editable=0;locked=1;connectable=0;" parent="1" vertex="1">
          <mxGeometry x="1214" y="94" width="100" height="40" as="geometry" />
        </mxCell>
        <mxCell id="256" value="password" style="ellipse;whiteSpace=wrap;html=1;align=center;fontSize=16;movable=0;resizable=0;rotatable=0;deletable=0;editable=0;locked=1;connectable=0;" parent="1" vertex="1">
          <mxGeometry x="1314" y="54" width="100" height="40" as="geometry" />
        </mxCell>
        <mxCell id="257" value="" style="endArrow=none;html=1;rounded=0;fontSize=12;startSize=8;endSize=8;curved=1;movable=0;resizable=0;rotatable=0;deletable=0;editable=0;locked=1;connectable=0;" parent="1" source="254" target="252" edge="1">
          <mxGeometry relative="1" as="geometry">
            <mxPoint x="2235" y="701" as="sourcePoint" />
            <mxPoint x="2395" y="701" as="targetPoint" />
          </mxGeometry>
        </mxCell>
        <mxCell id="258" value="" style="endArrow=none;html=1;rounded=0;fontSize=12;startSize=8;endSize=8;curved=1;movable=0;resizable=0;rotatable=0;deletable=0;editable=0;locked=1;connectable=0;" parent="1" source="255" target="252" edge="1">
          <mxGeometry relative="1" as="geometry">
            <mxPoint x="2235" y="701" as="sourcePoint" />
            <mxPoint x="2395" y="701" as="targetPoint" />
          </mxGeometry>
        </mxCell>
        <mxCell id="259" value="" style="endArrow=none;html=1;rounded=0;fontSize=12;startSize=8;endSize=8;curved=1;movable=0;resizable=0;rotatable=0;deletable=0;editable=0;locked=1;connectable=0;" parent="1" source="252" target="256" edge="1">
          <mxGeometry relative="1" as="geometry">
            <mxPoint x="2235" y="701" as="sourcePoint" />
            <mxPoint x="2395" y="701" as="targetPoint" />
          </mxGeometry>
        </mxCell>
        <mxCell id="260" value="" style="endArrow=none;html=1;rounded=0;fontSize=12;startSize=8;endSize=8;curved=1;movable=0;resizable=0;rotatable=0;deletable=0;editable=0;locked=1;connectable=0;" parent="1" source="253" target="252" edge="1">
          <mxGeometry relative="1" as="geometry">
            <mxPoint x="2235" y="701" as="sourcePoint" />
            <mxPoint x="2395" y="701" as="targetPoint" />
          </mxGeometry>
        </mxCell>
        <mxCell id="261" value="&lt;div&gt;Project&lt;/div&gt;" style="whiteSpace=wrap;html=1;align=center;fontSize=16;movable=0;resizable=0;rotatable=0;deletable=0;editable=0;locked=1;connectable=0;" parent="1" vertex="1">
          <mxGeometry x="1724" y="938" width="100" height="40" as="geometry" />
        </mxCell>
        <mxCell id="262" value="uuid" style="ellipse;whiteSpace=wrap;html=1;align=center;fontStyle=4;fontSize=16;movable=0;resizable=0;rotatable=0;deletable=0;editable=0;locked=1;connectable=0;" parent="1" vertex="1">
          <mxGeometry x="2024" y="801" width="100" height="40" as="geometry" />
        </mxCell>
        <mxCell id="263" value="name" style="ellipse;whiteSpace=wrap;html=1;align=center;fontSize=16;movable=0;resizable=0;rotatable=0;deletable=0;editable=0;locked=1;connectable=0;" parent="1" vertex="1">
          <mxGeometry x="1974" y="1001" width="100" height="40" as="geometry" />
        </mxCell>
        <mxCell id="264" value="&lt;div&gt;description&lt;/div&gt;" style="ellipse;whiteSpace=wrap;html=1;align=center;fontSize=16;movable=0;resizable=0;rotatable=0;deletable=0;editable=0;locked=1;connectable=0;" parent="1" vertex="1">
          <mxGeometry x="2004" y="871" width="100" height="40" as="geometry" />
        </mxCell>
        <mxCell id="265" value="date_created" style="ellipse;whiteSpace=wrap;html=1;align=center;fontSize=16;movable=0;resizable=0;rotatable=0;deletable=0;editable=0;locked=1;connectable=0;" parent="1" vertex="1">
          <mxGeometry x="1994" y="938" width="100" height="40" as="geometry" />
        </mxCell>
        <mxCell id="266" value="" style="endArrow=none;html=1;rounded=0;fontSize=12;startSize=8;endSize=8;curved=1;movable=0;resizable=0;rotatable=0;deletable=0;editable=0;locked=1;connectable=0;" parent="1" source="261" target="264" edge="1">
          <mxGeometry relative="1" as="geometry">
            <mxPoint x="2245" y="3551" as="sourcePoint" />
            <mxPoint x="2405" y="3551" as="targetPoint" />
          </mxGeometry>
        </mxCell>
        <mxCell id="267" value="" style="endArrow=none;html=1;rounded=0;fontSize=12;startSize=8;endSize=8;curved=1;movable=0;resizable=0;rotatable=0;deletable=0;editable=0;locked=1;connectable=0;" parent="1" source="263" target="261" edge="1">
          <mxGeometry relative="1" as="geometry">
            <mxPoint x="2245" y="3551" as="sourcePoint" />
            <mxPoint x="2405" y="3551" as="targetPoint" />
          </mxGeometry>
        </mxCell>
        <mxCell id="268" value="" style="endArrow=none;html=1;rounded=0;fontSize=12;startSize=8;endSize=8;curved=1;movable=0;resizable=0;rotatable=0;deletable=0;editable=0;locked=1;connectable=0;" parent="1" source="262" target="261" edge="1">
          <mxGeometry relative="1" as="geometry">
            <mxPoint x="2245" y="3551" as="sourcePoint" />
            <mxPoint x="2405" y="3551" as="targetPoint" />
          </mxGeometry>
        </mxCell>
        <mxCell id="269" value="" style="endArrow=none;html=1;rounded=0;fontSize=12;startSize=8;endSize=8;curved=1;movable=0;resizable=0;rotatable=0;deletable=0;editable=0;locked=1;connectable=0;" parent="1" source="261" target="265" edge="1">
          <mxGeometry relative="1" as="geometry">
            <mxPoint x="2245" y="3551" as="sourcePoint" />
            <mxPoint x="2405" y="3551" as="targetPoint" />
          </mxGeometry>
        </mxCell>
        <mxCell id="271" value="" style="endArrow=oval;html=1;rounded=0;fontSize=12;startSize=8;endSize=8;startArrow=none;startFill=0;endFill=0;movable=0;resizable=0;rotatable=0;deletable=0;editable=0;locked=1;connectable=0;" parent="1" source="429" target="261" edge="1">
          <mxGeometry relative="1" as="geometry">
            <mxPoint x="1774" y="646.0000000000002" as="sourcePoint" />
            <mxPoint x="2405" y="3551" as="targetPoint" />
          </mxGeometry>
        </mxCell>
        <mxCell id="272" value="N" style="edgeLabel;html=1;align=center;verticalAlign=middle;resizable=0;points=[];fontSize=16;movable=0;rotatable=0;deletable=0;editable=0;locked=1;connectable=0;" parent="271" vertex="1" connectable="0">
          <mxGeometry relative="1" as="geometry">
            <mxPoint as="offset" />
          </mxGeometry>
        </mxCell>
        <mxCell id="273" value="" style="endArrow=none;html=1;rounded=0;fontSize=12;startSize=8;endSize=8;curved=1;movable=0;resizable=0;rotatable=0;deletable=0;editable=0;locked=1;connectable=0;" parent="1" source="252" target="429" edge="1">
          <mxGeometry relative="1" as="geometry">
            <mxPoint x="2265" y="1401" as="sourcePoint" />
            <mxPoint x="1772.7876805054152" y="556.548285198556" as="targetPoint" />
          </mxGeometry>
        </mxCell>
        <mxCell id="274" value="&lt;div&gt;1&lt;/div&gt;" style="edgeLabel;html=1;align=center;verticalAlign=middle;resizable=0;points=[];fontSize=16;movable=0;rotatable=0;deletable=0;editable=0;locked=1;connectable=0;" parent="273" vertex="1" connectable="0">
          <mxGeometry relative="1" as="geometry">
            <mxPoint as="offset" />
          </mxGeometry>
        </mxCell>
        <mxCell id="275" value="License" style="whiteSpace=wrap;html=1;align=center;fontSize=16;movable=0;resizable=0;rotatable=0;deletable=0;editable=0;locked=1;connectable=0;" parent="1" vertex="1">
          <mxGeometry x="1724" y="1451" width="100" height="40" as="geometry" />
        </mxCell>
        <mxCell id="276" value="protected by" style="shape=rhombus;perimeter=rhombusPerimeter;whiteSpace=wrap;html=1;align=center;fontSize=16;movable=0;resizable=0;rotatable=0;deletable=0;editable=0;locked=1;connectable=0;" parent="1" vertex="1">
          <mxGeometry x="1714" y="1221" width="120" height="60" as="geometry" />
        </mxCell>
        <mxCell id="277" value="" style="endArrow=none;html=1;rounded=0;fontSize=12;startSize=8;endSize=8;curved=1;endFill=0;movable=0;resizable=0;rotatable=0;deletable=0;editable=0;locked=1;connectable=0;" parent="1" source="276" target="275" edge="1">
          <mxGeometry relative="1" as="geometry">
            <mxPoint x="3135" y="3621" as="sourcePoint" />
            <mxPoint x="3495" y="4151" as="targetPoint" />
          </mxGeometry>
        </mxCell>
        <mxCell id="278" value="&lt;div&gt;N&lt;/div&gt;" style="edgeLabel;html=1;align=center;verticalAlign=middle;resizable=0;points=[];fontSize=16;movable=0;rotatable=0;deletable=0;editable=0;locked=1;connectable=0;" parent="277" vertex="1" connectable="0">
          <mxGeometry relative="1" as="geometry">
            <mxPoint y="-6" as="offset" />
          </mxGeometry>
        </mxCell>
        <mxCell id="279" value="" style="endArrow=none;html=1;rounded=0;fontSize=12;startSize=8;endSize=8;curved=1;startArrow=oval;startFill=0;movable=0;resizable=0;rotatable=0;deletable=0;editable=0;locked=1;connectable=0;" parent="1" source="261" target="276" edge="1">
          <mxGeometry relative="1" as="geometry">
            <mxPoint x="1865" y="2591" as="sourcePoint" />
            <mxPoint x="1695" y="2621" as="targetPoint" />
          </mxGeometry>
        </mxCell>
        <mxCell id="280" value="N" style="edgeLabel;html=1;align=center;verticalAlign=middle;resizable=0;points=[];fontSize=16;movable=0;rotatable=0;deletable=0;editable=0;locked=1;connectable=0;" parent="279" vertex="1" connectable="0">
          <mxGeometry relative="1" as="geometry">
            <mxPoint as="offset" />
          </mxGeometry>
        </mxCell>
        <mxCell id="281" value="&lt;div&gt;short_name&lt;/div&gt;" style="ellipse;whiteSpace=wrap;html=1;align=center;fontSize=16;movable=0;resizable=0;rotatable=0;deletable=0;editable=0;locked=1;connectable=0;" parent="1" vertex="1">
          <mxGeometry x="1594" y="1521" width="100" height="40" as="geometry" />
        </mxCell>
        <mxCell id="282" value="id" style="ellipse;whiteSpace=wrap;html=1;align=center;fontStyle=4;fontSize=16;movable=0;resizable=0;rotatable=0;deletable=0;editable=0;locked=1;connectable=0;" parent="1" vertex="1">
          <mxGeometry x="1584" y="1401" width="100" height="40" as="geometry" />
        </mxCell>
        <mxCell id="283" value="&lt;div&gt;full_name&lt;/div&gt;" style="ellipse;whiteSpace=wrap;html=1;align=center;fontSize=16;movable=0;resizable=0;rotatable=0;deletable=0;editable=0;locked=1;connectable=0;" parent="1" vertex="1">
          <mxGeometry x="1718" y="1581" width="100" height="40" as="geometry" />
        </mxCell>
        <mxCell id="284" value="url" style="ellipse;whiteSpace=wrap;html=1;align=center;fontSize=16;movable=0;resizable=0;rotatable=0;deletable=0;editable=0;locked=1;connectable=0;" parent="1" vertex="1">
          <mxGeometry x="1873.5" y="1401" width="100" height="40" as="geometry" />
        </mxCell>
        <mxCell id="285" value="description" style="ellipse;whiteSpace=wrap;html=1;align=center;fontSize=16;movable=0;resizable=0;rotatable=0;deletable=0;editable=0;locked=1;connectable=0;" parent="1" vertex="1">
          <mxGeometry x="1864" y="1521" width="100" height="40" as="geometry" />
        </mxCell>
        <mxCell id="286" value="" style="endArrow=none;html=1;rounded=0;fontSize=12;startSize=8;endSize=8;curved=1;movable=0;resizable=0;rotatable=0;deletable=0;editable=0;locked=1;connectable=0;" parent="1" source="285" target="275" edge="1">
          <mxGeometry relative="1" as="geometry">
            <mxPoint x="3155" y="4049.5" as="sourcePoint" />
            <mxPoint x="3315" y="4049.5" as="targetPoint" />
          </mxGeometry>
        </mxCell>
        <mxCell id="287" value="" style="endArrow=none;html=1;rounded=0;fontSize=12;startSize=8;endSize=8;curved=1;movable=0;resizable=0;rotatable=0;deletable=0;editable=0;locked=1;connectable=0;" parent="1" source="275" target="283" edge="1">
          <mxGeometry relative="1" as="geometry">
            <mxPoint x="3005" y="4269.5" as="sourcePoint" />
            <mxPoint x="3165" y="4269.5" as="targetPoint" />
          </mxGeometry>
        </mxCell>
        <mxCell id="288" value="" style="endArrow=none;html=1;rounded=0;fontSize=12;startSize=8;endSize=8;curved=1;movable=0;resizable=0;rotatable=0;deletable=0;editable=0;locked=1;connectable=0;" parent="1" source="275" target="284" edge="1">
          <mxGeometry relative="1" as="geometry">
            <mxPoint x="3155" y="4049.5" as="sourcePoint" />
            <mxPoint x="3315" y="4049.5" as="targetPoint" />
          </mxGeometry>
        </mxCell>
        <mxCell id="289" value="" style="endArrow=none;html=1;rounded=0;fontSize=12;startSize=8;endSize=8;curved=1;movable=0;resizable=0;rotatable=0;deletable=0;editable=0;locked=1;connectable=0;" parent="1" source="275" target="281" edge="1">
          <mxGeometry relative="1" as="geometry">
            <mxPoint x="2235" y="3689.5" as="sourcePoint" />
            <mxPoint x="2395" y="3689.5" as="targetPoint" />
          </mxGeometry>
        </mxCell>
        <mxCell id="290" value="" style="endArrow=none;html=1;rounded=0;fontSize=12;startSize=8;endSize=8;curved=1;movable=0;resizable=0;rotatable=0;deletable=0;editable=0;locked=1;connectable=0;" parent="1" source="282" target="275" edge="1">
          <mxGeometry relative="1" as="geometry">
            <mxPoint x="3155" y="4049.5" as="sourcePoint" />
            <mxPoint x="3315" y="4049.5" as="targetPoint" />
          </mxGeometry>
        </mxCell>
        <mxCell id="291" value="" style="endArrow=none;html=1;rounded=0;fontSize=12;startSize=8;endSize=8;curved=1;startArrow=oval;startFill=0;movable=0;resizable=0;rotatable=0;deletable=0;editable=0;locked=1;connectable=0;" parent="1" source="261" target="294" edge="1">
          <mxGeometry relative="1" as="geometry">
            <mxPoint x="2725" y="3631" as="sourcePoint" />
            <mxPoint x="3155" y="3441" as="targetPoint" />
          </mxGeometry>
        </mxCell>
        <mxCell id="292" value="N" style="edgeLabel;html=1;align=center;verticalAlign=middle;resizable=0;points=[];fontSize=16;movable=0;rotatable=0;deletable=0;editable=0;locked=1;connectable=0;" parent="291" vertex="1" connectable="0">
          <mxGeometry relative="1" as="geometry">
            <mxPoint as="offset" />
          </mxGeometry>
        </mxCell>
        <mxCell id="293" value="HostingPlatform" style="whiteSpace=wrap;html=1;align=center;fontSize=16;movable=0;resizable=0;rotatable=0;deletable=0;editable=0;locked=1;connectable=0;" parent="1" vertex="1">
          <mxGeometry x="1393.9999999999995" y="1311" width="130" height="40" as="geometry" />
        </mxCell>
        <mxCell id="294" value="hosted on" style="shape=rhombus;perimeter=rhombusPerimeter;whiteSpace=wrap;html=1;align=center;fontSize=16;movable=0;resizable=0;rotatable=0;deletable=0;editable=0;locked=1;connectable=0;" parent="1" vertex="1">
          <mxGeometry x="1574" y="1151" width="120" height="60" as="geometry" />
        </mxCell>
        <mxCell id="295" value="" style="endArrow=none;html=1;rounded=0;fontSize=12;startSize=8;endSize=8;curved=1;endFill=0;movable=0;resizable=0;rotatable=0;deletable=0;editable=0;locked=1;connectable=0;" parent="1" source="294" target="293" edge="1">
          <mxGeometry relative="1" as="geometry">
            <mxPoint x="1695" y="2501" as="sourcePoint" />
            <mxPoint x="1695" y="2691" as="targetPoint" />
          </mxGeometry>
        </mxCell>
        <mxCell id="296" value="1" style="edgeLabel;html=1;align=center;verticalAlign=middle;resizable=0;points=[];fontSize=16;movable=0;rotatable=0;deletable=0;editable=0;locked=1;connectable=0;" parent="295" vertex="1" connectable="0">
          <mxGeometry relative="1" as="geometry">
            <mxPoint as="offset" />
          </mxGeometry>
        </mxCell>
        <mxCell id="297" value="name" style="ellipse;whiteSpace=wrap;html=1;align=center;fontSize=16;strokeColor=default;movable=0;resizable=0;rotatable=0;deletable=0;editable=0;locked=1;connectable=0;" parent="1" vertex="1">
          <mxGeometry x="1383.9999999999995" y="1411" width="100" height="40" as="geometry" />
        </mxCell>
        <mxCell id="298" value="url" style="ellipse;whiteSpace=wrap;html=1;align=center;fontSize=16;movable=0;resizable=0;rotatable=0;deletable=0;editable=0;locked=1;connectable=0;" parent="1" vertex="1">
          <mxGeometry x="1584" y="1271" width="100" height="40" as="geometry" />
        </mxCell>
        <mxCell id="299" value="&lt;div&gt;id&lt;/div&gt;" style="ellipse;whiteSpace=wrap;html=1;align=center;fontStyle=4;fontSize=16;movable=0;resizable=0;rotatable=0;deletable=0;editable=0;locked=1;connectable=0;" parent="1" vertex="1">
          <mxGeometry x="1243.9999999999995" y="1341" width="100" height="40" as="geometry" />
        </mxCell>
        <mxCell id="300" value="" style="endArrow=none;html=1;rounded=0;fontSize=12;startSize=8;endSize=8;curved=1;movable=0;resizable=0;rotatable=0;deletable=0;editable=0;locked=1;connectable=0;" parent="1" source="294" target="298" edge="1">
          <mxGeometry relative="1" as="geometry">
            <mxPoint x="1771.6099999999997" y="3401" as="sourcePoint" />
            <mxPoint x="1931.6099999999997" y="3401" as="targetPoint" />
          </mxGeometry>
        </mxCell>
        <mxCell id="301" value="" style="endArrow=none;html=1;rounded=0;fontSize=12;startSize=8;endSize=8;curved=1;movable=0;resizable=0;rotatable=0;deletable=0;editable=0;locked=1;connectable=0;" parent="1" source="297" target="293" edge="1">
          <mxGeometry relative="1" as="geometry">
            <mxPoint x="1771.6099999999997" y="3401" as="sourcePoint" />
            <mxPoint x="1931.6099999999997" y="3401" as="targetPoint" />
          </mxGeometry>
        </mxCell>
        <mxCell id="302" value="" style="endArrow=none;html=1;rounded=0;fontSize=12;startSize=8;endSize=8;curved=1;movable=0;resizable=0;rotatable=0;deletable=0;editable=0;locked=1;connectable=0;" parent="1" source="299" target="293" edge="1">
          <mxGeometry relative="1" as="geometry">
            <mxPoint x="1771.6099999999997" y="3401" as="sourcePoint" />
            <mxPoint x="1931.6099999999997" y="3401" as="targetPoint" />
          </mxGeometry>
        </mxCell>
        <mxCell id="303" value="date_joined" style="ellipse;whiteSpace=wrap;html=1;align=center;fontSize=16;movable=0;resizable=0;rotatable=0;deletable=0;editable=0;locked=1;connectable=0;" parent="1" vertex="1">
          <mxGeometry x="1424" y="34" width="100" height="40" as="geometry" />
        </mxCell>
        <mxCell id="304" value="" style="endArrow=none;html=1;rounded=0;fontSize=12;startSize=8;endSize=8;curved=1;movable=0;resizable=0;rotatable=0;deletable=0;editable=0;locked=1;connectable=0;" parent="1" source="303" target="252" edge="1">
          <mxGeometry relative="1" as="geometry">
            <mxPoint x="1865" y="701" as="sourcePoint" />
            <mxPoint x="1915" y="621" as="targetPoint" />
          </mxGeometry>
        </mxCell>
        <mxCell id="305" value="ProgrammingLanguage" style="whiteSpace=wrap;html=1;align=center;fontSize=16;movable=0;resizable=0;rotatable=0;deletable=0;editable=0;locked=1;connectable=0;" parent="1" vertex="1">
          <mxGeometry x="2014" y="1231" width="200" height="40" as="geometry" />
        </mxCell>
        <mxCell id="306" value="written in" style="shape=rhombus;perimeter=rhombusPerimeter;whiteSpace=wrap;html=1;align=center;fontSize=16;movable=0;resizable=0;rotatable=0;deletable=0;editable=0;locked=1;connectable=0;" parent="1" vertex="1">
          <mxGeometry x="1894" y="1091" width="120" height="60" as="geometry" />
        </mxCell>
        <mxCell id="307" value="" style="endArrow=oval;html=1;rounded=0;fontSize=12;startSize=8;endSize=8;curved=1;endFill=0;movable=0;resizable=0;rotatable=0;deletable=0;editable=0;locked=1;connectable=0;" parent="1" source="306" target="305" edge="1">
          <mxGeometry relative="1" as="geometry">
            <mxPoint x="3204" y="2851" as="sourcePoint" />
            <mxPoint x="3394" y="2811" as="targetPoint" />
          </mxGeometry>
        </mxCell>
        <mxCell id="308" value="N" style="edgeLabel;html=1;align=center;verticalAlign=middle;resizable=0;points=[];fontSize=16;movable=0;rotatable=0;deletable=0;editable=0;locked=1;connectable=0;" parent="307" vertex="1" connectable="0">
          <mxGeometry relative="1" as="geometry">
            <mxPoint as="offset" />
          </mxGeometry>
        </mxCell>
        <mxCell id="309" value="" style="endArrow=none;html=1;rounded=0;fontSize=12;startSize=8;endSize=8;curved=1;startArrow=oval;startFill=0;movable=0;resizable=0;rotatable=0;deletable=0;editable=0;locked=1;connectable=0;" parent="1" source="261" target="306" edge="1">
          <mxGeometry relative="1" as="geometry">
            <mxPoint x="2915" y="3161" as="sourcePoint" />
            <mxPoint x="3075" y="3161" as="targetPoint" />
          </mxGeometry>
        </mxCell>
        <mxCell id="310" value="N" style="edgeLabel;html=1;align=center;verticalAlign=middle;resizable=0;points=[];fontSize=16;movable=0;rotatable=0;deletable=0;editable=0;locked=1;connectable=0;" parent="309" vertex="1" connectable="0">
          <mxGeometry relative="1" as="geometry">
            <mxPoint as="offset" />
          </mxGeometry>
        </mxCell>
        <mxCell id="311" value="percentage" style="ellipse;whiteSpace=wrap;html=1;align=center;fontSize=16;movable=0;resizable=0;rotatable=0;deletable=0;editable=0;locked=1;connectable=0;" parent="1" vertex="1">
          <mxGeometry x="1904" y="1191" width="100" height="40" as="geometry" />
        </mxCell>
        <mxCell id="312" value="" style="endArrow=none;html=1;rounded=0;fontSize=12;startSize=8;endSize=8;curved=1;movable=0;resizable=0;rotatable=0;deletable=0;editable=0;locked=1;connectable=0;" parent="1" source="305" target="315" edge="1">
          <mxGeometry relative="1" as="geometry">
            <mxPoint x="3204" y="2791" as="sourcePoint" />
            <mxPoint x="3173.9999999999995" y="2571" as="targetPoint" />
          </mxGeometry>
        </mxCell>
        <mxCell id="313" value="" style="endArrow=none;html=1;rounded=0;fontSize=12;startSize=8;endSize=8;curved=1;movable=0;resizable=0;rotatable=0;deletable=0;editable=0;locked=1;connectable=0;" parent="1" source="306" target="311" edge="1">
          <mxGeometry relative="1" as="geometry">
            <mxPoint x="3204" y="2791" as="sourcePoint" />
            <mxPoint x="3307.6424699134514" y="1751.0531409501523" as="targetPoint" />
          </mxGeometry>
        </mxCell>
        <mxCell id="314" style="edgeStyle=none;curved=1;rounded=0;orthogonalLoop=1;jettySize=auto;html=1;exitX=1;exitY=0;exitDx=0;exitDy=0;fontSize=12;startSize=8;endSize=8;movable=0;resizable=0;rotatable=0;deletable=0;editable=0;locked=1;connectable=0;" parent="1" edge="1">
          <mxGeometry relative="1" as="geometry">
            <mxPoint x="1594" y="586" as="sourcePoint" />
            <mxPoint x="1594" y="586" as="targetPoint" />
          </mxGeometry>
        </mxCell>
        <mxCell id="315" value="&lt;div&gt;id&lt;/div&gt;" style="ellipse;whiteSpace=wrap;html=1;align=center;fontStyle=4;fontSize=16;movable=0;resizable=0;rotatable=0;deletable=0;editable=0;locked=1;connectable=0;" parent="1" vertex="1">
          <mxGeometry x="2064" y="1341" width="100" height="40" as="geometry" />
        </mxCell>
        <mxCell id="316" value="name" style="ellipse;whiteSpace=wrap;html=1;align=center;fontSize=16;movable=0;resizable=0;rotatable=0;deletable=0;editable=0;locked=1;connectable=0;" parent="1" vertex="1">
          <mxGeometry x="2194" y="1301" width="100" height="40" as="geometry" />
        </mxCell>
        <mxCell id="317" value="" style="endArrow=none;html=1;rounded=0;fontSize=12;startSize=8;endSize=8;curved=1;movable=0;resizable=0;rotatable=0;deletable=0;editable=0;locked=1;connectable=0;" parent="1" source="305" target="316" edge="1">
          <mxGeometry relative="1" as="geometry">
            <mxPoint x="3044" y="2771" as="sourcePoint" />
            <mxPoint x="3204" y="2771" as="targetPoint" />
          </mxGeometry>
        </mxCell>
        <mxCell id="318" value="OperatingSystem" style="whiteSpace=wrap;html=1;align=center;fontSize=16;movable=0;resizable=0;rotatable=0;deletable=0;editable=0;locked=1;connectable=0;" parent="1" vertex="1">
          <mxGeometry x="1300.6100000000006" y="1171" width="143.39" height="40" as="geometry" />
        </mxCell>
        <mxCell id="319" value="" style="endArrow=none;html=1;rounded=0;fontSize=12;startSize=8;endSize=8;curved=1;startArrow=oval;startFill=0;movable=0;resizable=0;rotatable=0;deletable=0;editable=0;locked=1;connectable=0;" parent="1" source="261" target="323" edge="1">
          <mxGeometry relative="1" as="geometry">
            <mxPoint x="3305" y="3541" as="sourcePoint" />
            <mxPoint x="3215" y="3621" as="targetPoint" />
          </mxGeometry>
        </mxCell>
        <mxCell id="320" value="" style="resizable=0;html=1;whiteSpace=wrap;align=right;verticalAlign=bottom;fontSize=16;movable=0;rotatable=0;deletable=0;editable=0;locked=1;connectable=0;" parent="319" connectable="0" vertex="1">
          <mxGeometry x="1" relative="1" as="geometry" />
        </mxCell>
        <mxCell id="321" value="N" style="edgeLabel;html=1;align=center;verticalAlign=middle;resizable=0;points=[];fontSize=16;movable=0;rotatable=0;deletable=0;editable=0;locked=1;connectable=0;" parent="319" vertex="1" connectable="0">
          <mxGeometry relative="1" as="geometry">
            <mxPoint as="offset" />
          </mxGeometry>
        </mxCell>
        <mxCell id="322" value="" style="endArrow=none;html=1;rounded=0;fontSize=12;startSize=8;endSize=8;curved=1;movable=0;resizable=0;rotatable=0;deletable=0;editable=0;locked=1;connectable=0;" parent="1" source="318" target="348" edge="1">
          <mxGeometry relative="1" as="geometry">
            <mxPoint x="1716.6100000000001" y="2921" as="sourcePoint" />
            <mxPoint x="1871.2546609406727" y="3015.1421356237306" as="targetPoint" />
          </mxGeometry>
        </mxCell>
        <mxCell id="323" value="runs on" style="shape=rhombus;perimeter=rhombusPerimeter;whiteSpace=wrap;html=1;align=center;fontSize=16;movable=0;resizable=0;rotatable=0;deletable=0;editable=0;locked=1;connectable=0;" parent="1" vertex="1">
          <mxGeometry x="1498.75" y="1061" width="120" height="60" as="geometry" />
        </mxCell>
        <mxCell id="324" value="name" style="ellipse;whiteSpace=wrap;html=1;align=center;fontSize=16;movable=0;resizable=0;rotatable=0;deletable=0;editable=0;locked=1;connectable=0;" parent="1" vertex="1">
          <mxGeometry x="1254" y="1031" width="100" height="40" as="geometry" />
        </mxCell>
        <mxCell id="325" value="description" style="ellipse;whiteSpace=wrap;html=1;align=center;fontSize=16;movable=0;resizable=0;rotatable=0;deletable=0;editable=0;locked=1;connectable=0;" parent="1" vertex="1">
          <mxGeometry x="1200.61" y="1241" width="100" height="40" as="geometry" />
        </mxCell>
        <mxCell id="326" value="" style="endArrow=none;html=1;rounded=0;fontSize=12;startSize=8;endSize=8;curved=1;movable=0;resizable=0;rotatable=0;deletable=0;editable=0;locked=1;connectable=0;" parent="1" source="318" target="324" edge="1">
          <mxGeometry relative="1" as="geometry">
            <mxPoint x="1716.6100000000001" y="3001" as="sourcePoint" />
            <mxPoint x="1876.6100000000001" y="3001" as="targetPoint" />
          </mxGeometry>
        </mxCell>
        <mxCell id="327" value="" style="endArrow=none;html=1;rounded=0;fontSize=12;startSize=8;endSize=8;curved=1;movable=0;resizable=0;rotatable=0;deletable=0;editable=0;locked=1;connectable=0;" parent="1" source="318" target="325" edge="1">
          <mxGeometry relative="1" as="geometry">
            <mxPoint x="1716.6100000000001" y="3001" as="sourcePoint" />
            <mxPoint x="1876.6100000000001" y="3001" as="targetPoint" />
          </mxGeometry>
        </mxCell>
        <mxCell id="328" value="version" style="ellipse;whiteSpace=wrap;html=1;align=center;fontSize=16;movable=0;resizable=0;rotatable=0;deletable=0;editable=0;locked=1;connectable=0;" parent="1" vertex="1">
          <mxGeometry x="1184" y="1101" width="100" height="40" as="geometry" />
        </mxCell>
        <mxCell id="329" value="" style="endArrow=none;html=1;rounded=0;fontSize=12;startSize=8;endSize=8;curved=1;movable=0;resizable=0;rotatable=0;deletable=0;editable=0;locked=1;connectable=0;" parent="1" source="328" target="318" edge="1">
          <mxGeometry relative="1" as="geometry">
            <mxPoint x="1550" y="2921" as="sourcePoint" />
            <mxPoint x="1710" y="2921" as="targetPoint" />
          </mxGeometry>
        </mxCell>
        <mxCell id="330" value="" style="endArrow=oval;html=1;rounded=0;fontSize=12;startSize=8;endSize=8;curved=1;endFill=0;movable=0;resizable=0;rotatable=0;deletable=0;editable=0;locked=1;connectable=0;" parent="1" source="323" target="318" edge="1">
          <mxGeometry relative="1" as="geometry">
            <mxPoint x="1550" y="2921" as="sourcePoint" />
            <mxPoint x="1710" y="2921" as="targetPoint" />
          </mxGeometry>
        </mxCell>
        <mxCell id="331" value="N" style="edgeLabel;html=1;align=center;verticalAlign=middle;resizable=0;points=[];fontSize=16;movable=0;rotatable=0;deletable=0;editable=0;locked=1;connectable=0;" parent="330" vertex="1" connectable="0">
          <mxGeometry relative="1" as="geometry">
            <mxPoint as="offset" />
          </mxGeometry>
        </mxCell>
        <mxCell id="332" style="edgeStyle=none;curved=1;rounded=0;orthogonalLoop=1;jettySize=auto;html=1;exitX=0.5;exitY=1;exitDx=0;exitDy=0;fontSize=12;startSize=8;endSize=8;movable=0;resizable=0;rotatable=0;deletable=0;editable=0;locked=1;connectable=0;" parent="1" source="262" target="262" edge="1">
          <mxGeometry relative="1" as="geometry" />
        </mxCell>
        <mxCell id="333" value="Tag" style="whiteSpace=wrap;html=1;align=center;fontSize=16;movable=0;resizable=0;rotatable=0;deletable=0;editable=0;locked=1;connectable=0;" parent="1" vertex="1">
          <mxGeometry x="1324" y="938" width="100" height="40" as="geometry" />
        </mxCell>
        <mxCell id="334" value="has" style="shape=rhombus;perimeter=rhombusPerimeter;whiteSpace=wrap;html=1;align=center;fontSize=16;movable=0;resizable=0;rotatable=0;deletable=0;editable=0;locked=1;connectable=0;" parent="1" vertex="1">
          <mxGeometry x="1504" y="928" width="120" height="60" as="geometry" />
        </mxCell>
        <mxCell id="335" value="" style="endArrow=oval;html=1;rounded=0;fontSize=12;startSize=8;endSize=8;curved=1;startArrow=none;startFill=0;endFill=0;movable=0;resizable=0;rotatable=0;deletable=0;editable=0;locked=1;connectable=0;" parent="1" source="334" target="261" edge="1">
          <mxGeometry relative="1" as="geometry">
            <mxPoint x="2865" y="3671" as="sourcePoint" />
            <mxPoint x="3025" y="3671" as="targetPoint" />
          </mxGeometry>
        </mxCell>
        <mxCell id="336" value="N" style="edgeLabel;html=1;align=center;verticalAlign=middle;resizable=0;points=[];fontSize=16;movable=0;rotatable=0;deletable=0;editable=0;locked=1;connectable=0;" parent="335" vertex="1" connectable="0">
          <mxGeometry relative="1" as="geometry">
            <mxPoint as="offset" />
          </mxGeometry>
        </mxCell>
        <mxCell id="337" value="" style="endArrow=none;html=1;rounded=0;fontSize=12;startSize=8;endSize=8;curved=1;endFill=0;startArrow=oval;startFill=0;movable=0;resizable=0;rotatable=0;deletable=0;editable=0;locked=1;connectable=0;" parent="1" source="333" target="334" edge="1">
          <mxGeometry relative="1" as="geometry">
            <mxPoint x="2847.22" y="3531" as="sourcePoint" />
            <mxPoint x="3174.997777777778" y="1419.8888888888891" as="targetPoint" />
          </mxGeometry>
        </mxCell>
        <mxCell id="338" value="N" style="edgeLabel;html=1;align=center;verticalAlign=middle;resizable=0;points=[];fontSize=16;movable=0;rotatable=0;deletable=0;editable=0;locked=1;connectable=0;" parent="337" vertex="1" connectable="0">
          <mxGeometry relative="1" as="geometry">
            <mxPoint as="offset" />
          </mxGeometry>
        </mxCell>
        <mxCell id="339" value="id" style="ellipse;whiteSpace=wrap;html=1;align=center;fontStyle=4;fontSize=16;movable=0;resizable=0;rotatable=0;deletable=0;editable=0;locked=1;connectable=0;" parent="1" vertex="1">
          <mxGeometry x="1314" y="791" width="100" height="40" as="geometry" />
        </mxCell>
        <mxCell id="340" value="name" style="ellipse;whiteSpace=wrap;html=1;align=center;fontSize=16;movable=0;resizable=0;rotatable=0;deletable=0;editable=0;locked=1;connectable=0;" parent="1" vertex="1">
          <mxGeometry x="1224" y="851" width="100" height="40" as="geometry" />
        </mxCell>
        <mxCell id="341" value="&lt;div&gt;description&lt;/div&gt;" style="ellipse;whiteSpace=wrap;html=1;align=center;fontSize=16;movable=0;resizable=0;rotatable=0;deletable=0;editable=0;locked=1;connectable=0;" parent="1" vertex="1">
          <mxGeometry x="1414" y="851" width="100" height="40" as="geometry" />
        </mxCell>
        <mxCell id="342" value="" style="endArrow=none;html=1;rounded=0;fontSize=12;startSize=8;endSize=8;curved=1;movable=0;resizable=0;rotatable=0;deletable=0;editable=0;locked=1;connectable=0;" parent="1" source="333" target="340" edge="1">
          <mxGeometry relative="1" as="geometry">
            <mxPoint x="2898.22" y="1131" as="sourcePoint" />
            <mxPoint x="3058.22" y="1131" as="targetPoint" />
          </mxGeometry>
        </mxCell>
        <mxCell id="343" value="" style="endArrow=none;html=1;rounded=0;fontSize=12;startSize=8;endSize=8;curved=1;movable=0;resizable=0;rotatable=0;deletable=0;editable=0;locked=1;connectable=0;" parent="1" source="333" target="341" edge="1">
          <mxGeometry relative="1" as="geometry">
            <mxPoint x="2898.22" y="1131" as="sourcePoint" />
            <mxPoint x="3058.22" y="1131" as="targetPoint" />
          </mxGeometry>
        </mxCell>
        <mxCell id="344" value="" style="endArrow=none;html=1;rounded=0;fontSize=12;startSize=8;endSize=8;curved=1;movable=0;resizable=0;rotatable=0;deletable=0;editable=0;locked=1;connectable=0;" parent="1" source="333" target="339" edge="1">
          <mxGeometry relative="1" as="geometry">
            <mxPoint x="2898.22" y="1131" as="sourcePoint" />
            <mxPoint x="3058.22" y="1131" as="targetPoint" />
          </mxGeometry>
        </mxCell>
        <mxCell id="345" value="picture" style="ellipse;whiteSpace=wrap;html=1;align=center;fontSize=16;movable=0;resizable=0;rotatable=0;deletable=0;editable=0;locked=1;connectable=0;" parent="1" vertex="1">
          <mxGeometry x="1554" y="34" width="100" height="40" as="geometry" />
        </mxCell>
        <mxCell id="346" style="edgeStyle=none;curved=1;rounded=0;orthogonalLoop=1;jettySize=auto;html=1;exitX=0.5;exitY=1;exitDx=0;exitDy=0;fontSize=12;startSize=8;endSize=8;movable=0;resizable=0;rotatable=0;deletable=0;editable=0;locked=1;connectable=0;" parent="1" source="345" target="345" edge="1">
          <mxGeometry relative="1" as="geometry" />
        </mxCell>
        <mxCell id="347" value="" style="endArrow=none;html=1;rounded=0;fontSize=12;startSize=8;endSize=8;curved=1;movable=0;resizable=0;rotatable=0;deletable=0;editable=0;locked=1;connectable=0;" parent="1" source="252" target="345" edge="1">
          <mxGeometry relative="1" as="geometry">
            <mxPoint x="2295" y="651" as="sourcePoint" />
            <mxPoint x="2455" y="651" as="targetPoint" />
          </mxGeometry>
        </mxCell>
        <mxCell id="348" value="&lt;div&gt;id&lt;/div&gt;" style="ellipse;whiteSpace=wrap;html=1;align=center;fontStyle=4;fontSize=16;movable=0;resizable=0;rotatable=0;deletable=0;editable=0;locked=1;connectable=0;" parent="1" vertex="1">
          <mxGeometry x="1373.9999999999995" y="1061" width="100" height="40" as="geometry" />
        </mxCell>
        <mxCell id="349" value="last_login" style="ellipse;whiteSpace=wrap;html=1;align=center;fontSize=16;movable=0;resizable=0;rotatable=0;deletable=0;editable=0;locked=1;connectable=0;" parent="1" vertex="1">
          <mxGeometry x="1664" y="64" width="100" height="40" as="geometry" />
        </mxCell>
        <mxCell id="350" value="" style="endArrow=none;html=1;rounded=0;fontSize=12;startSize=8;endSize=8;curved=1;movable=0;resizable=0;rotatable=0;deletable=0;editable=0;locked=1;connectable=0;" parent="1" source="252" target="349" edge="1">
          <mxGeometry relative="1" as="geometry">
            <mxPoint x="1970" y="581" as="sourcePoint" />
            <mxPoint x="2020" y="401" as="targetPoint" />
          </mxGeometry>
        </mxCell>
        <mxCell id="351" value="Review" style="whiteSpace=wrap;html=1;align=center;fontSize=16;movable=0;resizable=0;rotatable=0;deletable=0;editable=0;locked=1;connectable=0;" parent="1" vertex="1">
          <mxGeometry x="1344" y="521" width="100" height="40" as="geometry" />
        </mxCell>
        <mxCell id="352" value="author of" style="shape=rhombus;perimeter=rhombusPerimeter;whiteSpace=wrap;html=1;align=center;fontSize=16;movable=0;resizable=0;rotatable=0;deletable=0;editable=0;locked=1;connectable=0;" parent="1" vertex="1">
          <mxGeometry x="1334" y="344" width="120" height="60" as="geometry" />
        </mxCell>
        <mxCell id="353" value="uuid" style="ellipse;whiteSpace=wrap;html=1;align=center;fontStyle=4;fontSize=16;strokeColor=default;movable=0;resizable=0;rotatable=0;deletable=0;editable=0;locked=1;connectable=0;" parent="1" vertex="1">
          <mxGeometry x="1234" y="411" width="100" height="40" as="geometry" />
        </mxCell>
        <mxCell id="354" value="&lt;div&gt;title&lt;/div&gt;" style="ellipse;whiteSpace=wrap;html=1;align=center;fontSize=16;movable=0;resizable=0;rotatable=0;deletable=0;editable=0;locked=1;connectable=0;" parent="1" vertex="1">
          <mxGeometry x="1184" y="481" width="100" height="40" as="geometry" />
        </mxCell>
        <mxCell id="355" value="text" style="ellipse;whiteSpace=wrap;html=1;align=center;fontSize=16;movable=0;resizable=0;rotatable=0;deletable=0;editable=0;locked=1;connectable=0;" parent="1" vertex="1">
          <mxGeometry x="1234" y="571" width="100" height="40" as="geometry" />
        </mxCell>
        <mxCell id="356" value="" style="endArrow=none;html=1;rounded=0;fontSize=12;startSize=8;endSize=8;curved=1;movable=0;resizable=0;rotatable=0;deletable=0;editable=0;locked=1;connectable=0;" parent="1" source="355" target="351" edge="1">
          <mxGeometry relative="1" as="geometry">
            <mxPoint x="1423" y="781" as="sourcePoint" />
            <mxPoint x="1583" y="781" as="targetPoint" />
          </mxGeometry>
        </mxCell>
        <mxCell id="357" value="" style="endArrow=none;html=1;rounded=0;fontSize=12;startSize=8;endSize=8;curved=1;movable=0;resizable=0;rotatable=0;deletable=0;editable=0;locked=1;connectable=0;" parent="1" source="351" target="354" edge="1">
          <mxGeometry relative="1" as="geometry">
            <mxPoint x="1444" y="781" as="sourcePoint" />
            <mxPoint x="1503" y="781" as="targetPoint" />
          </mxGeometry>
        </mxCell>
        <mxCell id="358" value="" style="endArrow=none;html=1;rounded=0;fontSize=12;startSize=8;endSize=8;curved=1;movable=0;resizable=0;rotatable=0;deletable=0;editable=0;locked=1;connectable=0;" parent="1" source="353" target="351" edge="1">
          <mxGeometry relative="1" as="geometry">
            <mxPoint x="1454" y="791" as="sourcePoint" />
            <mxPoint x="1513" y="791" as="targetPoint" />
          </mxGeometry>
        </mxCell>
        <mxCell id="359" value="for" style="shape=rhombus;perimeter=rhombusPerimeter;whiteSpace=wrap;html=1;align=center;fontSize=16;movable=0;resizable=0;rotatable=0;deletable=0;editable=0;locked=1;connectable=0;" parent="1" vertex="1">
          <mxGeometry x="1334" y="661" width="120" height="60" as="geometry" />
        </mxCell>
        <mxCell id="360" value="" style="endArrow=none;html=1;rounded=0;fontSize=12;startSize=8;endSize=8;curved=1;movable=0;resizable=0;rotatable=0;deletable=0;editable=0;locked=1;connectable=0;" parent="1" source="252" target="352" edge="1">
          <mxGeometry relative="1" as="geometry">
            <mxPoint x="2054" y="1881" as="sourcePoint" />
            <mxPoint x="2214" y="1881" as="targetPoint" />
          </mxGeometry>
        </mxCell>
        <mxCell id="361" value="1" style="edgeLabel;html=1;align=center;verticalAlign=middle;resizable=0;points=[];fontSize=16;movable=0;rotatable=0;deletable=0;editable=0;locked=1;connectable=0;" parent="360" vertex="1" connectable="0">
          <mxGeometry relative="1" as="geometry">
            <mxPoint as="offset" />
          </mxGeometry>
        </mxCell>
        <mxCell id="362" value="" style="endArrow=none;html=1;rounded=0;fontSize=12;startSize=8;endSize=8;curved=1;startArrow=oval;startFill=0;movable=0;resizable=0;rotatable=0;deletable=0;editable=0;locked=1;connectable=0;" parent="1" source="351" target="352" edge="1">
          <mxGeometry relative="1" as="geometry">
            <mxPoint x="1689" y="1631" as="sourcePoint" />
            <mxPoint x="1922" y="1822" as="targetPoint" />
          </mxGeometry>
        </mxCell>
        <mxCell id="363" value="N" style="edgeLabel;html=1;align=center;verticalAlign=middle;resizable=0;points=[];fontSize=16;movable=0;rotatable=0;deletable=0;editable=0;locked=1;connectable=0;" parent="362" vertex="1" connectable="0">
          <mxGeometry relative="1" as="geometry">
            <mxPoint as="offset" />
          </mxGeometry>
        </mxCell>
        <mxCell id="364" value="" style="endArrow=none;html=1;rounded=0;fontSize=12;startSize=8;endSize=8;curved=1;startArrow=oval;startFill=0;movable=0;resizable=0;rotatable=0;deletable=0;editable=0;locked=1;connectable=0;" parent="1" source="351" target="359" edge="1">
          <mxGeometry relative="1" as="geometry">
            <mxPoint x="1964" y="1831" as="sourcePoint" />
            <mxPoint x="2124" y="1831" as="targetPoint" />
          </mxGeometry>
        </mxCell>
        <mxCell id="365" value="N" style="edgeLabel;html=1;align=center;verticalAlign=middle;resizable=0;points=[];fontSize=16;movable=0;rotatable=0;deletable=0;editable=0;locked=1;connectable=0;" parent="364" vertex="1" connectable="0">
          <mxGeometry relative="1" as="geometry">
            <mxPoint as="offset" />
          </mxGeometry>
        </mxCell>
        <mxCell id="366" value="" style="endArrow=none;html=1;rounded=0;fontSize=12;startSize=8;endSize=8;curved=1;movable=0;resizable=0;rotatable=0;deletable=0;editable=0;locked=1;connectable=0;" parent="1" source="359" target="261" edge="1">
          <mxGeometry relative="1" as="geometry">
            <mxPoint x="2043" y="1991" as="sourcePoint" />
            <mxPoint x="2166" y="1852" as="targetPoint" />
          </mxGeometry>
        </mxCell>
        <mxCell id="367" value="1" style="edgeLabel;html=1;align=center;verticalAlign=middle;resizable=0;points=[];fontSize=16;movable=0;rotatable=0;deletable=0;editable=0;locked=1;connectable=0;" parent="366" vertex="1" connectable="0">
          <mxGeometry relative="1" as="geometry">
            <mxPoint as="offset" />
          </mxGeometry>
        </mxCell>
        <mxCell id="368" value="is contributing" style="shape=rhombus;perimeter=rhombusPerimeter;whiteSpace=wrap;html=1;align=center;fontSize=16;movable=0;resizable=0;rotatable=0;deletable=0;editable=0;locked=1;connectable=0;" parent="1" vertex="1">
          <mxGeometry x="1493.5" y="541" width="130.5" height="60" as="geometry" />
        </mxCell>
        <mxCell id="369" value="" style="endArrow=oval;html=1;rounded=0;fontSize=12;startSize=8;endSize=8;startArrow=none;startFill=0;endFill=0;movable=0;resizable=0;rotatable=0;deletable=0;editable=0;locked=1;connectable=0;" parent="1" source="368" target="261" edge="1">
          <mxGeometry relative="1" as="geometry">
            <mxPoint x="2110" y="1546" as="sourcePoint" />
            <mxPoint x="2350" y="1600" as="targetPoint" />
          </mxGeometry>
        </mxCell>
        <mxCell id="370" value="N" style="edgeLabel;html=1;align=center;verticalAlign=middle;resizable=0;points=[];fontSize=16;movable=0;rotatable=0;deletable=0;editable=0;locked=1;connectable=0;" parent="369" vertex="1" connectable="0">
          <mxGeometry relative="1" as="geometry">
            <mxPoint as="offset" />
          </mxGeometry>
        </mxCell>
        <mxCell id="371" value="" style="endArrow=none;html=1;rounded=0;fontSize=12;startSize=8;endSize=8;startArrow=none;startFill=0;endFill=0;movable=0;resizable=0;rotatable=0;deletable=0;editable=0;locked=1;connectable=0;" parent="1" source="368" target="252" edge="1">
          <mxGeometry relative="1" as="geometry">
            <mxPoint x="2080" y="1664" as="sourcePoint" />
            <mxPoint x="2350" y="1619" as="targetPoint" />
          </mxGeometry>
        </mxCell>
        <mxCell id="372" value="N" style="edgeLabel;html=1;align=center;verticalAlign=middle;resizable=0;points=[];fontSize=16;movable=0;rotatable=0;deletable=0;editable=0;locked=1;connectable=0;" parent="371" vertex="1" connectable="0">
          <mxGeometry relative="1" as="geometry">
            <mxPoint as="offset" />
          </mxGeometry>
        </mxCell>
        <mxCell id="373" value="" style="endArrow=none;html=1;rounded=0;fontSize=12;startSize=8;endSize=8;curved=1;startArrow=oval;startFill=0;movable=0;resizable=0;rotatable=0;deletable=0;editable=0;locked=1;connectable=0;" parent="1" source="261" target="377" edge="1">
          <mxGeometry relative="1" as="geometry">
            <mxPoint x="2391" y="1591" as="sourcePoint" />
            <mxPoint x="2324" y="1451" as="targetPoint" />
          </mxGeometry>
        </mxCell>
        <mxCell id="374" value="N" style="edgeLabel;html=1;align=center;verticalAlign=middle;resizable=0;points=[];fontSize=16;movable=0;rotatable=0;deletable=0;editable=0;locked=1;connectable=0;" parent="373" vertex="1" connectable="0">
          <mxGeometry relative="1" as="geometry">
            <mxPoint as="offset" />
          </mxGeometry>
        </mxCell>
        <mxCell id="375" value="date_created" style="ellipse;whiteSpace=wrap;html=1;align=center;fontSize=16;movable=0;resizable=0;rotatable=0;deletable=0;editable=0;locked=1;connectable=0;" parent="1" vertex="1">
          <mxGeometry x="1414" y="441" width="100" height="40" as="geometry" />
        </mxCell>
        <mxCell id="376" value="" style="endArrow=none;html=1;rounded=0;fontSize=12;startSize=8;endSize=8;curved=1;movable=0;resizable=0;rotatable=0;deletable=0;editable=0;locked=1;connectable=0;" parent="1" source="375" target="351" edge="1">
          <mxGeometry relative="1" as="geometry">
            <mxPoint x="1348" y="721" as="sourcePoint" />
            <mxPoint x="1388" y="561" as="targetPoint" />
          </mxGeometry>
        </mxCell>
        <mxCell id="377" value="star" style="shape=rhombus;perimeter=rhombusPerimeter;whiteSpace=wrap;html=1;align=center;fontSize=16;movable=0;resizable=0;rotatable=0;deletable=0;editable=0;locked=1;connectable=0;" parent="1" vertex="1">
          <mxGeometry x="1915" y="571" width="120" height="60" as="geometry" />
        </mxCell>
        <mxCell id="378" value="" style="endArrow=none;html=1;rounded=0;fontSize=12;startSize=8;endSize=8;curved=1;startArrow=oval;startFill=0;movable=0;resizable=0;rotatable=0;deletable=0;editable=0;locked=1;connectable=0;" parent="1" source="252" target="377" edge="1">
          <mxGeometry relative="1" as="geometry">
            <mxPoint x="1715" y="1601" as="sourcePoint" />
            <mxPoint x="1974" y="1550" as="targetPoint" />
          </mxGeometry>
        </mxCell>
        <mxCell id="379" value="&lt;div&gt;N&lt;br&gt;&lt;/div&gt;" style="edgeLabel;html=1;align=center;verticalAlign=middle;resizable=0;points=[];fontSize=16;movable=0;rotatable=0;deletable=0;editable=0;locked=1;connectable=0;" parent="378" vertex="1" connectable="0">
          <mxGeometry relative="1" as="geometry">
            <mxPoint as="offset" />
          </mxGeometry>
        </mxCell>
        <mxCell id="380" value="contributor_amount" style="ellipse;whiteSpace=wrap;html=1;align=center;dashed=1;fontSize=16;movable=0;resizable=0;rotatable=0;deletable=0;editable=0;locked=1;connectable=0;" parent="1" vertex="1">
          <mxGeometry x="2014" y="731" width="180" height="40" as="geometry" />
        </mxCell>
        <mxCell id="381" value="" style="endArrow=none;html=1;rounded=0;fontSize=12;startSize=8;endSize=8;curved=1;movable=0;resizable=0;rotatable=0;deletable=0;editable=0;locked=1;connectable=0;" parent="1" source="261" target="380" edge="1">
          <mxGeometry relative="1" as="geometry">
            <mxPoint x="2284" y="1721" as="sourcePoint" />
            <mxPoint x="2444" y="1721" as="targetPoint" />
          </mxGeometry>
        </mxCell>
        <mxCell id="383" value="" style="endArrow=none;html=1;rounded=0;fontSize=12;startSize=8;endSize=8;curved=1;movable=0;resizable=0;rotatable=0;deletable=0;editable=0;locked=1;connectable=0;" parent="1" source="382" target="261" edge="1">
          <mxGeometry relative="1" as="geometry">
            <mxPoint x="2284" y="1721" as="sourcePoint" />
            <mxPoint x="2444" y="1721" as="targetPoint" />
          </mxGeometry>
        </mxCell>
        <mxCell id="391" value="" style="endArrow=none;html=1;rounded=0;fontSize=12;startSize=8;endSize=8;curved=1;movable=0;resizable=0;rotatable=0;deletable=0;editable=0;locked=1;connectable=0;" parent="1" source="261" target="382" edge="1">
          <mxGeometry relative="1" as="geometry">
            <mxPoint x="1795" y="938" as="sourcePoint" />
            <mxPoint x="2054" y="685" as="targetPoint" />
          </mxGeometry>
        </mxCell>
        <mxCell id="382" value="star_amount" style="ellipse;whiteSpace=wrap;html=1;align=center;dashed=1;fontSize=16;movable=0;resizable=0;rotatable=0;deletable=0;editable=0;locked=1;connectable=0;" parent="1" vertex="1">
          <mxGeometry x="1935" y="691" width="100" height="40" as="geometry" />
        </mxCell>
        <mxCell id="392" value="belongs to" style="shape=rhombus;perimeter=rhombusPerimeter;whiteSpace=wrap;html=1;align=center;fontSize=16;movable=0;resizable=0;rotatable=0;deletable=0;editable=0;locked=1;connectable=0;" parent="1" vertex="1">
          <mxGeometry x="1629.25" y="171" width="120" height="60" as="geometry" />
        </mxCell>
        <mxCell id="393" value="Permission" style="whiteSpace=wrap;html=1;align=center;fontSize=16;movable=0;resizable=0;rotatable=0;deletable=0;editable=0;locked=1;connectable=0;" parent="1" vertex="1">
          <mxGeometry x="1914" y="371" width="100" height="40" as="geometry" />
        </mxCell>
        <mxCell id="394" value="Group" style="whiteSpace=wrap;html=1;align=center;fontSize=16;movable=0;resizable=0;rotatable=0;deletable=0;editable=0;locked=1;connectable=0;" parent="1" vertex="1">
          <mxGeometry x="1835" y="181" width="100" height="40" as="geometry" />
        </mxCell>
        <mxCell id="395" value="has" style="shape=rhombus;perimeter=rhombusPerimeter;whiteSpace=wrap;html=1;align=center;fontSize=16;movable=0;resizable=0;rotatable=0;deletable=0;editable=0;locked=1;connectable=0;" parent="1" vertex="1">
          <mxGeometry x="1694" y="284" width="120" height="60" as="geometry" />
        </mxCell>
        <mxCell id="396" value="has" style="shape=rhombus;perimeter=rhombusPerimeter;whiteSpace=wrap;html=1;align=center;fontSize=16;movable=0;resizable=0;rotatable=0;deletable=0;editable=0;locked=1;connectable=0;" parent="1" vertex="1">
          <mxGeometry x="1873.5" y="264" width="120" height="60" as="geometry" />
        </mxCell>
        <mxCell id="397" value="" style="endArrow=oval;html=1;rounded=0;fontSize=12;startSize=8;endSize=8;startArrow=none;startFill=0;endFill=0;movable=0;resizable=0;rotatable=0;deletable=0;editable=0;locked=1;connectable=0;" parent="1" source="392" target="252" edge="1">
          <mxGeometry relative="1" as="geometry">
            <mxPoint x="2838" y="1458" as="sourcePoint" />
            <mxPoint x="1754" y="381" as="targetPoint" />
          </mxGeometry>
        </mxCell>
        <mxCell id="398" value="N" style="edgeLabel;html=1;align=center;verticalAlign=middle;resizable=0;points=[];fontSize=16;movable=0;rotatable=0;deletable=0;editable=0;locked=1;connectable=0;" parent="397" vertex="1" connectable="0">
          <mxGeometry relative="1" as="geometry">
            <mxPoint as="offset" />
          </mxGeometry>
        </mxCell>
        <mxCell id="399" value="" style="endArrow=oval;html=1;rounded=0;fontSize=12;startSize=8;endSize=8;startArrow=none;startFill=0;endFill=0;movable=0;resizable=0;rotatable=0;deletable=0;editable=0;locked=1;connectable=0;" parent="1" source="392" target="394" edge="1">
          <mxGeometry relative="1" as="geometry">
            <mxPoint x="2693" y="491" as="sourcePoint" />
            <mxPoint x="2693" y="391" as="targetPoint" />
          </mxGeometry>
        </mxCell>
        <mxCell id="400" value="N" style="edgeLabel;html=1;align=center;verticalAlign=middle;resizable=0;points=[];fontSize=16;movable=0;rotatable=0;deletable=0;editable=0;locked=1;connectable=0;" parent="399" vertex="1" connectable="0">
          <mxGeometry relative="1" as="geometry">
            <mxPoint as="offset" />
          </mxGeometry>
        </mxCell>
        <mxCell id="401" value="" style="endArrow=oval;html=1;rounded=0;fontSize=12;startSize=8;endSize=8;startArrow=none;startFill=0;endFill=0;movable=0;resizable=0;rotatable=0;deletable=0;editable=0;locked=1;connectable=0;" parent="1" source="396" target="394" edge="1">
          <mxGeometry relative="1" as="geometry">
            <mxPoint x="2693" y="551" as="sourcePoint" />
            <mxPoint x="2693" y="641" as="targetPoint" />
          </mxGeometry>
        </mxCell>
        <mxCell id="402" value="N" style="edgeLabel;html=1;align=center;verticalAlign=middle;resizable=0;points=[];fontSize=16;movable=0;rotatable=0;deletable=0;editable=0;locked=1;connectable=0;" parent="401" vertex="1" connectable="0">
          <mxGeometry relative="1" as="geometry">
            <mxPoint as="offset" />
          </mxGeometry>
        </mxCell>
        <mxCell id="403" value="" style="endArrow=oval;html=1;rounded=0;fontSize=12;startSize=8;endSize=8;startArrow=none;startFill=0;endFill=0;movable=0;resizable=0;rotatable=0;deletable=0;editable=0;locked=1;connectable=0;" parent="1" source="396" target="393" edge="1">
          <mxGeometry relative="1" as="geometry">
            <mxPoint x="2703" y="561" as="sourcePoint" />
            <mxPoint x="2792" y="691" as="targetPoint" />
          </mxGeometry>
        </mxCell>
        <mxCell id="404" value="N" style="edgeLabel;html=1;align=center;verticalAlign=middle;resizable=0;points=[];fontSize=16;movable=0;rotatable=0;deletable=0;editable=0;locked=1;connectable=0;" parent="403" vertex="1" connectable="0">
          <mxGeometry relative="1" as="geometry">
            <mxPoint as="offset" />
          </mxGeometry>
        </mxCell>
        <mxCell id="405" value="" style="endArrow=oval;html=1;rounded=0;fontSize=12;startSize=8;endSize=8;startArrow=none;startFill=0;endFill=0;movable=0;resizable=0;rotatable=0;deletable=0;editable=0;locked=1;connectable=0;" parent="1" source="395" target="252" edge="1">
          <mxGeometry relative="1" as="geometry">
            <mxPoint x="2528" y="1692" as="sourcePoint" />
            <mxPoint x="2506" y="1502" as="targetPoint" />
          </mxGeometry>
        </mxCell>
        <mxCell id="406" value="N" style="edgeLabel;html=1;align=center;verticalAlign=middle;resizable=0;points=[];fontSize=16;movable=0;rotatable=0;deletable=0;editable=0;locked=1;connectable=0;" parent="405" vertex="1" connectable="0">
          <mxGeometry relative="1" as="geometry">
            <mxPoint as="offset" />
          </mxGeometry>
        </mxCell>
        <mxCell id="407" value="" style="endArrow=oval;html=1;rounded=0;fontSize=12;startSize=8;endSize=8;startArrow=none;startFill=0;endFill=0;movable=0;resizable=0;rotatable=0;deletable=0;editable=0;locked=1;connectable=0;" parent="1" source="395" target="393" edge="1">
          <mxGeometry relative="1" as="geometry">
            <mxPoint x="2723" y="581" as="sourcePoint" />
            <mxPoint x="2723" y="671" as="targetPoint" />
          </mxGeometry>
        </mxCell>
        <mxCell id="408" value="N" style="edgeLabel;html=1;align=center;verticalAlign=middle;resizable=0;points=[];fontSize=16;movable=0;rotatable=0;deletable=0;editable=0;locked=1;connectable=0;" parent="407" vertex="1" connectable="0">
          <mxGeometry relative="1" as="geometry">
            <mxPoint as="offset" />
          </mxGeometry>
        </mxCell>
        <mxCell id="409" value="" style="endArrow=none;html=1;rounded=0;fontSize=12;startSize=8;endSize=8;curved=1;movable=0;resizable=0;rotatable=0;deletable=0;editable=0;locked=1;connectable=0;" parent="1" source="393" target="429" edge="1">
          <mxGeometry relative="1" as="geometry">
            <mxPoint x="2805.5" y="1732" as="sourcePoint" />
            <mxPoint x="2624" y="1364" as="targetPoint" />
          </mxGeometry>
        </mxCell>
        <mxCell id="410" value="N" style="edgeLabel;html=1;align=center;verticalAlign=middle;resizable=0;points=[];fontSize=16;movable=0;rotatable=0;deletable=0;editable=0;locked=1;connectable=0;" parent="409" vertex="1" connectable="0">
          <mxGeometry relative="1" as="geometry">
            <mxPoint as="offset" />
          </mxGeometry>
        </mxCell>
        <mxCell id="411" value="name" style="ellipse;whiteSpace=wrap;html=1;align=center;fontSize=16;movable=0;resizable=0;rotatable=0;deletable=0;editable=0;locked=1;connectable=0;" parent="1" vertex="1">
          <mxGeometry x="1964" y="94" width="100" height="40" as="geometry" />
        </mxCell>
        <mxCell id="412" value="id" style="ellipse;whiteSpace=wrap;html=1;align=center;fontStyle=4;fontSize=16;movable=0;resizable=0;rotatable=0;deletable=0;editable=0;locked=1;connectable=0;" parent="1" vertex="1">
          <mxGeometry x="1815" y="64" width="100" height="40" as="geometry" />
        </mxCell>
        <mxCell id="413" value="" style="endArrow=none;html=1;rounded=0;fontSize=12;startSize=8;endSize=8;curved=1;movable=0;resizable=0;rotatable=0;deletable=0;editable=0;locked=1;connectable=0;" parent="1" source="412" target="394" edge="1">
          <mxGeometry relative="1" as="geometry">
            <mxPoint x="2802" y="661" as="sourcePoint" />
            <mxPoint x="2542" y="601" as="targetPoint" />
          </mxGeometry>
        </mxCell>
        <mxCell id="414" value="" style="endArrow=none;html=1;rounded=0;fontSize=12;startSize=8;endSize=8;curved=1;movable=0;resizable=0;rotatable=0;deletable=0;editable=0;locked=1;connectable=0;" parent="1" source="411" target="394" edge="1">
          <mxGeometry relative="1" as="geometry">
            <mxPoint x="2389" y="598" as="sourcePoint" />
            <mxPoint x="2492" y="614" as="targetPoint" />
          </mxGeometry>
        </mxCell>
        <mxCell id="415" value="" style="endArrow=none;html=1;rounded=0;fontSize=12;startSize=8;endSize=8;curved=1;movable=0;resizable=0;rotatable=0;deletable=0;editable=0;locked=1;connectable=0;" parent="1" source="416" target="393" edge="1">
          <mxGeometry relative="1" as="geometry">
            <mxPoint x="2782" y="771" as="sourcePoint" />
            <mxPoint x="2558" y="791" as="targetPoint" />
          </mxGeometry>
        </mxCell>
        <mxCell id="416" value="id" style="ellipse;whiteSpace=wrap;html=1;align=center;fontStyle=4;fontSize=16;movable=0;resizable=0;rotatable=0;deletable=0;editable=0;locked=1;connectable=0;" parent="1" vertex="1">
          <mxGeometry x="2044" y="284" width="100" height="40" as="geometry" />
        </mxCell>
        <mxCell id="417" value="name" style="ellipse;whiteSpace=wrap;html=1;align=center;fontSize=16;movable=0;resizable=0;rotatable=0;deletable=0;editable=0;locked=1;connectable=0;" parent="1" vertex="1">
          <mxGeometry x="2144" y="334" width="100" height="40" as="geometry" />
        </mxCell>
        <mxCell id="418" value="" style="endArrow=none;html=1;rounded=0;fontSize=12;startSize=8;endSize=8;curved=1;movable=0;resizable=0;rotatable=0;deletable=0;editable=0;locked=1;connectable=0;" parent="1" source="417" target="393" edge="1">
          <mxGeometry relative="1" as="geometry">
            <mxPoint x="2741" y="647" as="sourcePoint" />
            <mxPoint x="2836" y="701" as="targetPoint" />
          </mxGeometry>
        </mxCell>
        <mxCell id="419" value="" style="endArrow=none;html=1;rounded=0;fontSize=12;startSize=8;endSize=8;curved=1;movable=0;resizable=0;rotatable=0;deletable=0;editable=0;locked=1;connectable=0;" parent="1" source="393" target="352" edge="1">
          <mxGeometry relative="1" as="geometry">
            <mxPoint x="2704" y="1822" as="sourcePoint" />
            <mxPoint x="2715" y="1184" as="targetPoint" />
          </mxGeometry>
        </mxCell>
        <mxCell id="420" value="N" style="edgeLabel;html=1;align=center;verticalAlign=middle;resizable=0;points=[];fontSize=16;movable=0;rotatable=0;deletable=0;editable=0;locked=1;connectable=0;" parent="419" vertex="1" connectable="0">
          <mxGeometry relative="1" as="geometry">
            <mxPoint as="offset" />
          </mxGeometry>
        </mxCell>
        <mxCell id="421" value="can_create" style="ellipse;whiteSpace=wrap;html=1;align=center;fontSize=16;movable=0;resizable=0;rotatable=0;deletable=0;editable=0;locked=1;connectable=0;" parent="1" vertex="1">
          <mxGeometry x="2164" y="411" width="100" height="40" as="geometry" />
        </mxCell>
        <mxCell id="422" value="can_change" style="ellipse;whiteSpace=wrap;html=1;align=center;fontSize=16;movable=0;resizable=0;rotatable=0;deletable=0;editable=0;locked=1;connectable=0;" parent="1" vertex="1">
          <mxGeometry x="2204" y="561" width="100" height="40" as="geometry" />
        </mxCell>
        <mxCell id="423" value="can_delete" style="ellipse;whiteSpace=wrap;html=1;align=center;fontSize=16;movable=0;resizable=0;rotatable=0;deletable=0;editable=0;locked=1;connectable=0;" parent="1" vertex="1">
          <mxGeometry x="2044" y="534.0000000000002" width="100" height="40" as="geometry" />
        </mxCell>
        <mxCell id="424" value="can_view" style="ellipse;whiteSpace=wrap;html=1;align=center;fontSize=16;movable=0;resizable=0;rotatable=0;deletable=0;editable=0;locked=1;connectable=0;" parent="1" vertex="1">
          <mxGeometry x="2224" y="474" width="100" height="40" as="geometry" />
        </mxCell>
        <mxCell id="425" value="" style="endArrow=none;html=1;rounded=0;fontSize=12;startSize=8;endSize=8;curved=1;movable=0;resizable=0;rotatable=0;deletable=0;editable=0;locked=1;connectable=0;" parent="1" source="421" target="393" edge="1">
          <mxGeometry relative="1" as="geometry">
            <mxPoint x="2710" y="778" as="sourcePoint" />
            <mxPoint x="2822" y="739" as="targetPoint" />
          </mxGeometry>
        </mxCell>
        <mxCell id="426" value="" style="endArrow=none;html=1;rounded=0;fontSize=12;startSize=8;endSize=8;curved=1;movable=0;resizable=0;rotatable=0;deletable=0;editable=0;locked=1;connectable=0;" parent="1" source="422" target="393" edge="1">
          <mxGeometry relative="1" as="geometry">
            <mxPoint x="2720" y="788" as="sourcePoint" />
            <mxPoint x="2852" y="691" as="targetPoint" />
          </mxGeometry>
        </mxCell>
        <mxCell id="427" value="" style="endArrow=none;html=1;rounded=0;fontSize=12;startSize=8;endSize=8;curved=1;fontStyle=1;movable=0;resizable=0;rotatable=0;deletable=0;editable=0;locked=1;connectable=0;" parent="1" source="423" target="393" edge="1">
          <mxGeometry relative="1" as="geometry">
            <mxPoint x="2730" y="798" as="sourcePoint" />
            <mxPoint x="2842" y="759" as="targetPoint" />
          </mxGeometry>
        </mxCell>
        <mxCell id="428" value="" style="endArrow=none;html=1;rounded=0;fontSize=12;startSize=8;endSize=8;curved=1;movable=0;resizable=0;rotatable=0;deletable=0;editable=0;locked=1;connectable=0;" parent="1" source="424" target="393" edge="1">
          <mxGeometry relative="1" as="geometry">
            <mxPoint x="2740" y="808" as="sourcePoint" />
            <mxPoint x="2852" y="769" as="targetPoint" />
          </mxGeometry>
        </mxCell>
        <mxCell id="429" value="owner of" style="shape=rhombus;perimeter=rhombusPerimeter;whiteSpace=wrap;html=1;align=center;fontSize=16;movable=0;resizable=0;rotatable=0;deletable=0;editable=0;locked=1;connectable=0;" parent="1" vertex="1">
          <mxGeometry x="1714" y="574" width="120" height="60" as="geometry" />
        </mxCell>
      </root>
    </mxGraphModel>
  </diagram>
</mxfile>
